<svg id="Group_2" data-name="Group 2" xmlns="http://www.w3.org/2000/svg" width="213.5" height="181" viewBox="0 0 213.5 181">
  <g id="Group">
    <g id="logo">
      <path id="Shape" d="M54.1,108.989a22.485,22.485,0,0,0-9.425.141l-7.731,1.522L21.69,107.63c-.3,0-.418-1.031-.418-1.827V93.226a1.143,1.143,0,0,0-1.138-1.148H11.429V85.8a1.144,1.144,0,0,0-.975-1.124l-5.688-.913V75.472A36.189,36.189,0,0,0,2.445,62.965,36.165,36.165,0,0,0,4.766,50.458v-7.87l5.688-.468A1.144,1.144,0,0,0,11.5,40.972V33.945h8.682A1.143,1.143,0,0,0,21.318,32.8V20.126c0-1.1.209-1.64.395-1.78l15.3-2.834,15.3,2.834c.186.164.395.7.395,1.78V32.7a1.153,1.153,0,0,0,.341.82,1.132,1.132,0,0,0,.819.328h8.682v7.027a1.144,1.144,0,0,0,1.045,1.148l5.688.468v7.87A36.165,36.165,0,0,0,71.6,62.871,36.189,36.189,0,0,0,69.28,75.378v.913q1.184-.492,2.321-1.031a33.873,33.873,0,0,1,2.321-11.992,1.134,1.134,0,0,0,0-.82A33.9,33.9,0,0,1,71.6,50.34V41.51a1.144,1.144,0,0,0-1.045-1.148l-5.688-.468V32.7a1.143,1.143,0,0,0-1.138-1.148h-8.8V20.126q0-3.162-1.88-3.935h-.232L38.567,13.545,42.56,4.176a1.153,1.153,0,0,0-.441-1.429L41,2.115C39.8,1.506,38.683.85,37.546.171a1.152,1.152,0,0,0-1.207,0c-1.091.679-2.321,1.335-3.459,1.944q-.662.351-1.114.632a1.153,1.153,0,0,0-.441,1.429l3.993,9.369-14.3,2.576h-.232c-1.88.773-1.88,3.162-1.88,3.935v11.43H10.268a1.143,1.143,0,0,0-1.138,1.148v7.214l-5.688.468A1.144,1.144,0,0,0,2.4,41.464v8.947A33.9,33.9,0,0,1,.077,62.52a1.134,1.134,0,0,0,0,.82A33.9,33.9,0,0,1,2.4,75.449v9.369a1.144,1.144,0,0,0,.975,1.124l5.757.913V93.32a1.143,1.143,0,0,0,1.138,1.148H18.95V105.9c0,2.342.743,3.7,2.321,4.075l14.138,2.811-3.97,9.064a1.153,1.153,0,0,0,.441,1.429l1.091.609c1.207.632,2.321,1.265,3.459,1.944a1.152,1.152,0,0,0,1.207,0c1.091-.679,2.321-1.335,3.459-1.944l1.091-.609a1.153,1.153,0,0,0,.441-1.429l-3.97-9.064,14.184-2.811h0l-.3-1.1.3,1.1a2.321,2.321,0,0,0,1.254-.867" transform="translate(15 19)" fill="#bc9b6a"/>
      <path id="Shape-2" data-name="Shape" d="M67.086,121.893a5.059,5.059,0,0,0-.933-2.519,6.845,6.845,0,0,1-4.09,2.707l-8.084,1.365a1.171,1.171,0,0,0-.837.588,1.137,1.137,0,0,0,0,1.012l2.774,6.215c0,.588-.67,2.354-4.783,4.425a40.2,40.2,0,0,0-6.075,3.672,39.966,39.966,0,0,0-6.146-3.7c-4.042-2.024-4.64-3.837-4.783-4.425l2.774-6.215a1.137,1.137,0,0,0,0-1.012,1.2,1.2,0,0,0-.837-.588l-8.084-1.365c-.574,0-5.692-1.153-5.692-8.027v-6.309a1.144,1.144,0,0,0-.343-.816,1.181,1.181,0,0,0-.829-.338H12.2v-7.25a1.16,1.16,0,0,0-1-1.13l-5.477-.847c-.12,0-.478-.377-.478-1.554V83.547a29.525,29.525,0,0,0-2.822-12.57A29.525,29.525,0,0,0,5.24,58.406V46.213c0-.989.143-1.389.622-1.554l5.238-.424a1.161,1.161,0,0,0,1.076-1.153v-7.7H21.12a1.163,1.163,0,0,0,1.172-1.153V27.922c0-6.238,4.209-7.721,5.644-8.027l8.347-.4a1.2,1.2,0,0,0,.957-.541,1.137,1.137,0,0,0,0-1.059l-3.157-7.062c0-.588.67-2.354,4.783-4.425a39.959,39.959,0,0,0,6.051-3.672,40.157,40.157,0,0,0,6.146,3.46c4.066,2.024,4.64,3.837,4.783,4.425l-3.157,7.062a1.137,1.137,0,0,0,0,1.059,1.2,1.2,0,0,0,.957.541l8.347.4c1.435.306,5.644,1.789,5.644,8.027v6.309a1.163,1.163,0,0,0,1.172,1.153h8.945v7.65a1.161,1.161,0,0,0,1.076,1.153l5.238.424c.454.165.622.565.622,1.554V58.194a29.5,29.5,0,0,0,2.8,12.57A29.522,29.522,0,0,0,84.784,81c.885-.518,1.746-1.036,2.559-1.577a27.271,27.271,0,0,1,2.535-8.168,1.114,1.114,0,0,0,0-1.012,27.231,27.231,0,0,1-2.822-12.076V46.213A3.527,3.527,0,0,0,84.665,42.4h-.239l-4.281-.353V34.231a1.163,1.163,0,0,0-1.172-1.153H70V27.9A9.647,9.647,0,0,0,62.4,17.612h-.191l-6.768-.33,2.631-5.908a1.136,1.136,0,0,0,0-.424c0-1.106-.5-3.955-6.027-6.709A36.319,36.319,0,0,1,45.658.263a1.211,1.211,0,0,0-1.507,0,36.414,36.414,0,0,1-6.386,3.978C32.313,7,31.786,9.844,31.81,10.9a1.136,1.136,0,0,0,0,.424l2.607,5.908-6.744.33h-.191a9.646,9.646,0,0,0-7.605,10.31v5.179H11.027a1.181,1.181,0,0,0-.829.338,1.144,1.144,0,0,0-.343.816v7.745l-4.281.353H5.335a3.527,3.527,0,0,0-2.392,3.813V58.359A27.231,27.231,0,0,1,.122,70.435a1.114,1.114,0,0,0,0,1.012A27.231,27.231,0,0,1,2.944,83.523V95.764C2.944,99.036,5,99.53,5.335,99.6l4.472.706v7.415a1.144,1.144,0,0,0,.343.816,1.181,1.181,0,0,0,.829.338h8.992v5.179c0,8.757,6.864,10.169,7.653,10.31l6.6,1.13L31.834,130.6a1.159,1.159,0,0,0,0,.424c0,1.106.5,3.955,6.027,6.709a36.413,36.413,0,0,1,6.409,4,1.211,1.211,0,0,0,1.507,0,36.41,36.41,0,0,1,6.386-4c5.525-2.754,6.051-5.6,6.027-6.709a1.159,1.159,0,0,0,0-.424L55.8,125.495l6.6-1.13a9.625,9.625,0,0,0,4.783-2.354" transform="translate(7 9)" fill="#bc9b6a"/>
      <path id="Shape-3" data-name="Shape" d="M72.88,137.23a13.255,13.255,0,0,1-2.982.986,1.184,1.184,0,0,0-.8.517,1.119,1.119,0,0,0-.118.939c0,.258,1.728,6.621-8.046,11.528a22.594,22.594,0,0,0-8.922,7.043,22.594,22.594,0,0,0-8.922-7.043c-9.774-4.907-8.117-11.27-8.046-11.528a1.143,1.143,0,0,0-.142-.916,1.184,1.184,0,0,0-.781-.517,13.683,13.683,0,0,1-10.933-14.228,1.155,1.155,0,0,0-1.16-1.15h-8.9v-8.17a1.154,1.154,0,0,0-.994-1.127,7.358,7.358,0,0,1-5.869-7.771V93.584A22.782,22.782,0,0,0,2.619,81.047,22.783,22.783,0,0,0,6.287,68.51V56.348a7.286,7.286,0,0,1,5.8-7.795,1.154,1.154,0,0,0,.994-1.127v-8.17h8.851a1.155,1.155,0,0,0,1.16-1.15A13.707,13.707,0,0,1,34.046,23.877a1.16,1.16,0,0,0,.781-.517,1.119,1.119,0,0,0,.118-.916c0-.258-1.728-6.6,8.046-11.528a22.594,22.594,0,0,0,8.922-7.043,22.594,22.594,0,0,0,8.922,7.043c9.939,4.954,8.046,11.434,8.046,11.5a1.119,1.119,0,0,0,.118.916,1.16,1.16,0,0,0,.8.517A13.683,13.683,0,0,1,80.737,38.082a1.155,1.155,0,0,0,1.16,1.15h8.851v8.147a1.154,1.154,0,0,0,.994,1.127,7.358,7.358,0,0,1,5.987,7.842V68.557A22.806,22.806,0,0,0,101.4,81.094,21.552,21.552,0,0,0,99.03,85.93,41.026,41.026,0,0,0,104,81.094h0a1.122,1.122,0,0,0-.26-.7,20.22,20.22,0,0,1-3.668-11.739v-12.3a9.63,9.63,0,0,0-6.863-9.79V38.105a1.155,1.155,0,0,0-1.16-1.15H83.08a15.989,15.989,0,0,0-11.833-15.05c.237-2.489-.331-8.452-9.466-13.03C53.83,4.7,53.167,1.033,53.144.986A1.2,1.2,0,0,0,51.96,0a1.156,1.156,0,0,0-1.136,1.01S50.162,4.7,42,8.875c-9.111,4.578-9.655,10.542-9.466,13.03A15.965,15.965,0,0,0,20.7,36.955H11.943a1.155,1.155,0,0,0-1.16,1.15v8.429A9.63,9.63,0,0,0,3.92,56.348V68.557A20.2,20.2,0,0,1,.252,80.3a1.143,1.143,0,0,0,0,1.432A20.22,20.22,0,0,1,3.92,93.467v12.209a9.63,9.63,0,0,0,6.863,9.79v8.429a1.155,1.155,0,0,0,1.16,1.15h8.9a15.965,15.965,0,0,0,11.833,15.05c-.237,2.489.331,8.452,9.466,13.03,8.164,4.109,8.827,7.842,8.827,7.889a1.18,1.18,0,0,0,1.16.986h0a1.157,1.157,0,0,0,1.136-.986c0-.117.757-3.827,8.827-7.889,9.111-4.578,9.655-10.542,9.466-13.03a20.2,20.2,0,0,0,1.467-2.982" fill="#bc9b6a"/>
      <path id="Shape-4" data-name="Shape" d="M10.955,18.114c0-.406-.743,5-5.267,5S2.222,10.724,9.064,0c-1.26.315-7.99,11.671-9,21.561S10.887,32.6,11,18.114" transform="translate(97 99)" fill="#2a8068"/>
      <path id="Shape-5" data-name="Shape" d="M.072,41C.034,41,.01,40.994,0,40.982c-.1-.15,4.149-3.2,8.646-6.426,3.2-2.294,6.5-4.665,8.723-6.334a169.69,169.69,0,0,0,14.355-12c.006-.08-.357-.358-.9-.777-1.874-1.435-5.774-4.421-5.626-7.376C25.379,4.356,31.521,0,34.561,0c.069,0,.138,0,.2.007a3.157,3.157,0,0,1,2.18,1.1,5.623,5.623,0,0,1,1.026,4.17,23.933,23.933,0,0,1-2.584,7.946l-.072.069.009.008c.446.448,2.671,2.735,2.671,3.724a16.87,16.87,0,0,1-1.747,3.961l-.021,0c-.347,0-1.369-1.266-2.271-2.382a12.533,12.533,0,0,0-1.273-1.465A144.6,144.6,0,0,1,14.548,33.449C7.136,38.659.838,41,.072,41ZM31.634,3.627a4.163,4.163,0,0,0-3.761,2.322,31.71,31.71,0,0,0,5.981,5.782,13.03,13.03,0,0,0,.694-3.04c.074-.885.138-3.071-.87-4.247a2.289,2.289,0,0,0-1.641-.8C31.9,3.633,31.768,3.627,31.634,3.627Z" transform="translate(99 4)" fill="#2a8068"/>
      <path id="Shape-6" data-name="Shape" d="M15.634,3.79c.8-1.916,2.461-4.071,4.687-3.76A6.8,6.8,0,0,1,24,4.316a15.284,15.284,0,0,1-1.5,4.43c-1.219-1.7-3.679-5.627-5.741-2.754-2.6,5.675-1.1,12.6-4.687,18.007C10.2,19.211,8.792,14.11,5.581,10.016l-.562,1.82A48.078,48.078,0,0,1,.051,8.483,8.057,8.057,0,0,1,1.457,2.952c1.312-1.173,3.21-.263,4.312.742,3.843,3.424,5.577,8.453,7.264,13.17.82-4.358.8-8.932,2.343-13.1" transform="translate(188 57)" fill="#2a8068"/>
      <path id="Shape-7" data-name="Shape" d="M15.634,3.79c.8-1.916,2.461-4.071,4.687-3.76A6.828,6.828,0,0,1,24,4.316a15.259,15.259,0,0,1-1.5,4.43c-1.219-1.7-3.679-5.627-5.741-2.754-2.6,5.651-1.1,12.6-4.687,18.007C10.2,19.211,8.792,14.11,5.581,10.016l-.562,1.82A48.078,48.078,0,0,1,.051,8.483,8.057,8.057,0,0,1,1.457,2.952c1.312-1.173,3.21-.263,4.312.742,3.984,3.424,5.835,8.381,7.4,13.17.82-4.358.8-8.932,2.343-13.1" transform="translate(41 44)" fill="#2a8068"/>
      <path id="Shape-8" data-name="Shape" d="M19.262,41h0A22.163,22.163,0,0,1,7.849,38.013C2.987,34.977.346,29.866,0,22.821V21.19a14.368,14.368,0,0,1,.841-4.91c.019,0,.029.044.029.129a17.374,17.374,0,0,0,.941,5.837,13.074,13.074,0,0,0,6.073,6.441,26.424,26.424,0,0,0,12.741,2.89,35.706,35.706,0,0,0,12.253-2.3,61.616,61.616,0,0,1-.353-6.619,38.572,38.572,0,0,1,3.18-15.312,18.688,18.688,0,0,1,3.362-5.256,5.923,5.923,0,0,1,4-2.091h.016l-.016,0a4.75,4.75,0,0,1,3.451,1.655,10.916,10.916,0,0,1,2.12,3.82A27.923,27.923,0,0,1,50,14a43.9,43.9,0,0,1-2.14,11.928,37.161,37.161,0,0,1-5.741,6.07,37.717,37.717,0,0,1-6.983,4.663A15.254,15.254,0,0,1,35.3,41a36.005,36.005,0,0,1-1.152-3.811A33,33,0,0,1,19.262,41ZM41.228,9.675a3.5,3.5,0,0,0-2.439,1.388,14.077,14.077,0,0,0-2.2,3.493,23.636,23.636,0,0,0-2.2,9.276c0,1.414.073,3.083.211,4.827v-.023c7.712-3.215,12.63-7.965,12.63-9.376a12.211,12.211,0,0,0-2.116-6.576C43.867,10.828,42.38,9.675,41.228,9.675Z" transform="translate(162 89)" fill="#2a8068"/>
      <path id="Shape-9" data-name="Shape" d="M9.728,14.991C10.322,15.3,15,7.864,15,7.365A59.856,59.856,0,0,0,5.1,0C4.356,0,0,7.555,0,8.054a76.574,76.574,0,0,0,9.653,6.937" transform="translate(63 65)" fill="#2a8068"/>
      <path id="Shape-10" data-name="Shape" d="M84.011.7C82.911.7,69.662,16.2,54.4,16.2c-6.529,0-8.848-2.606-8.848-2.606s2.75-3.921,6.313-3.921c6.744,0,15.162,8.382,15.162,16.434,0,4.249-23.723,27.915-44.672,27.915S2.391,38.2,2.391,36.414A59.9,59.9,0,0,1,6.481,18.923,43.189,43.189,0,0,0,0,39.865C0,50.97,5.668,64,23.029,64s46.7-24.769,46.7-39.748S62.775,0,53.759,0C45.891,0,41.252,11.2,41.252,15.542S42.759,25.5,54.046,25.5c13.7,0,27.071-14.979,27.071-14.979,1.172-1.2,2.248-2.512,2.607-.117S87,12.208,87,12.208a13.918,13.918,0,0,1-2.391-6.855c0-3.451.526-4.7-.574-4.7" transform="translate(77 89)" fill="#2a8068"/>
      <path id="Shape-11" data-name="Shape" d="M9.728,14.991C10.322,15.3,15,7.864,15,7.365A59.856,59.856,0,0,0,5.1,0C4.356,0,0,7.555,0,8.054a76.574,76.574,0,0,0,9.653,6.937" transform="translate(140 72)" fill="#2a8068"/>
      <path id="Shape-12" data-name="Shape" d="M66.109.024c-.21,0-3.8,9.236-3.8,9.473s1.655,1.231,1.911,2.368a189.5,189.5,0,0,0,6.433,18.614,51.7,51.7,0,0,1,3.706,8.9c0,.829-24.147,21.74-46.617,21.74S2.688,43.1,2.688,36.968a71.286,71.286,0,0,1,3.1-16.057,48.79,48.79,0,0,0-5.78,23.9C.007,59.893,10.123,71,26.136,71S68.976,56.341,75.316,46.228A23.823,23.823,0,0,0,78,34.837a32.815,32.815,0,0,0-3.962-14.209c-2.587-5.139-3.543-8.455-3.263-8.407a29.007,29.007,0,0,0,4.359,2.013,102.9,102.9,0,0,0-6.6-11.06C66.9.805,66.436,0,66.2,0" transform="translate(41 45)" fill="#2a8068"/>
      <path id="Shape-13" data-name="Shape" d="M53.156,85.778c0-8.421-2.667-12.094-12.153-17.029s-16.234-7.673-18.09-9.357A19.979,19.979,0,0,0,29.152,52a13.281,13.281,0,0,1-7.12,2.339A20.241,20.241,0,0,1,3.479,43.509C11.063,38.105,55.707,10.9,66.491,10.9c3.085,0,6.308.749,6.308,4.842s-5.172,9.708-10.9,18.2a23.7,23.7,0,0,0-4.453,15.977,132.77,132.77,0,0,1,9.277-16.374C70.782,28.023,76,19.93,76,9.357,76,3.368,73.913,0,68.37,0,58.212,0,9.068,28.655,3.154,34.573.835,36.912,0,41.591,0,48.608c0,7.789,12.153,16.374,21.661,21.5S50.628,82.62,50.628,90.222c0,5.965-7.468,9.8-14.565,9.8a11.194,11.194,0,0,1-10.483-9.731l-1.067,5.24S25.233,108,36.458,108c9.555,0,16.652-7.789,16.652-22.222" transform="translate(136 3)" fill="#2a8068"/>
      <path id="Shape-14" data-name="Shape" d="M8.533.43a32.194,32.194,0,0,1,13.351.607,2.524,2.524,0,0,1,1.963,1.639,2.571,2.571,0,0,1-.452,2.534A32,32,0,0,1,12.488,15.666,73.731,73.731,0,0,1,0,17c5.633-3.178,12.224-4.488,17.426-8.515A46.452,46.452,0,0,0,2.732,7.708,36,36,0,0,1,8.557.43" transform="translate(165 33)" fill="#2a8068"/>
    </g>
    <text id="التعليمي" transform="translate(169.5 174)" fill="#bc9b6a" font-size="24" font-family="SegoeUI, Segoe UI"><tspan x="-43.084" y="-5">التعليمي</tspan></text>
  </g>
</svg>
